<?xml version="1.0" standalone="no"?>
<!DOCTYPE svg PUBLIC "-//W3C//DTD SVG 20010904//EN"
 "http://www.w3.org/TR/2001/REC-SVG-20010904/DTD/svg10.dtd">
<svg version="1.0" xmlns="http://www.w3.org/2000/svg"
 width="800.000000pt" height="300.000000pt" viewBox="0 0 600.000000 840.000000"
 preserveAspectRatio="xMidYMid meet">

<g transform="translate(0.000000,840.000000) scale(0.100000,-0.100000)"
fill="#000000" stroke="none">
<path d="M8115 8304 c-305 -24 -571 -119 -815 -291 -90 -64 -380 -341 -380
-363 0 -22 19 -7 75 62 33 39 105 112 160 161 443 394 993 509 1610 336 218
-62 494 -181 650 -282 38 -25 73 -43 79 -40 13 9 -19 30 -169 112 -363 197
-684 291 -1045 304 -63 3 -137 3 -165 1z"/>
<path d="M4887 8223 c18 -2 50 -2 70 0 21 2 7 4 -32 4 -38 0 -55 -2 -38 -4z"/>
<path d="M4742 8211 c-8 -5 8 -6 40 -4 73 6 83 11 23 12 -27 0 -56 -3 -63 -8z"/>
<path d="M5001 8216 c2 -2 42 -6 89 -9 47 -4 96 -9 110 -11 14 -3 54 -10 90
-15 36 -6 81 -15 100 -21 19 -5 42 -10 50 -9 29 2 -85 29 -205 49 -104 17
-246 27 -234 16z"/>
<path d="M4632 8198 c-30 -5 -51 -12 -49 -14 5 -6 137 16 137 22 0 6 -26 3
-88 -8z"/>
<path d="M4805 8195 c6 -2 91 -5 190 -7 99 -2 158 -1 130 3 -49 7 -340 11
-320 4z"/>
<path d="M4700 8183 c-66 -10 -165 -35 -179 -44 -13 -9 -13 -10 3 -5 27 9 142
34 206 44 30 5 42 10 25 9 -16 0 -41 -2 -55 -4z"/>
<path d="M4548 8173 c7 -3 16 -2 19 1 4 3 -2 6 -13 5 -11 0 -14 -3 -6 -6z"/>
<path d="M5181 8176 c2 -2 31 -6 64 -9 39 -4 50 -3 30 2 -31 9 -102 14 -94 7z"/>
<path d="M4466 8154 c-49 -18 -54 -22 -22 -20 14 0 26 5 26 9 0 5 3 6 8 3 4
-2 18 2 32 10 32 17 6 17 -44 -2z"/>
<path d="M5318 8153 c6 -2 18 -2 25 0 6 3 1 5 -13 5 -14 0 -19 -2 -12 -5z"/>
<path d="M5368 8143 c7 -3 16 -2 19 1 4 3 -2 6 -13 5 -11 0 -14 -3 -6 -6z"/>
<path d="M5475 8140 c11 -5 27 -9 35 -9 9 0 8 4 -5 9 -11 5 -27 9 -35 9 -9 0
-8 -4 5 -9z"/>
<path d="M5475 8115 c44 -12 93 -28 108 -34 48 -19 55 -11 7 9 -29 12 -38 19
-25 20 l20 1 -20 9 c-27 12 -43 12 -25 0 24 -16 -10 -13 -60 5 -23 8 -52 15
-64 14 -11 0 15 -11 59 -24z"/>
<path d="M4385 8119 c-18 -8 -17 -8 5 -6 16 1 24 -3 22 -11 -2 -9 3 -10 15 -4
10 5 25 12 33 16 8 3 4 4 -9 2 -14 -3 -30 -1 -35 3 -6 5 -20 5 -31 0z"/>
<path d="M4321 8093 c-20 -10 -29 -19 -21 -21 8 -3 16 0 18 7 2 6 12 11 23 11
10 0 19 5 19 10 0 13 2 13 -39 -7z"/>
<path d="M5615 8097 c17 -8 44 -17 60 -20 l30 -6 -31 14 c-17 8 -44 17 -60 20
l-29 6 30 -14z"/>
<path d="M4370 8085 c-15 -8 -19 -14 -10 -14 18 -1 46 16 40 23 -3 2 -16 -2
-30 -9z"/>
<path d="M5917 7948 c-312 -29 -583 -218 -669 -466 -32 -93 -32 -239 1 -332
61 -173 217 -324 416 -401 346 -134 753 -62 991 176 221 222 228 537 16 766
-178 192 -451 286 -755 257z m143 -43 c0 -33 2 -35 34 -35 59 0 159 -37 204
-76 56 -47 115 -164 85 -164 -7 0 -117 -18 -215 -35 -20 -3 -28 0 -33 15 -8
25 -54 80 -66 80 -5 0 -9 -42 -9 -94 l0 -94 72 -22 c205 -62 289 -149 289
-302 0 -85 -30 -157 -92 -217 -56 -53 -114 -81 -200 -95 l-69 -10 0 -63 0 -63
-50 0 -50 0 0 64 0 63 -51 7 c-157 21 -265 103 -306 232 -9 30 -15 56 -12 58
4 4 230 36 256 36 7 0 17 -19 23 -42 11 -40 58 -98 79 -98 7 0 11 39 11 114
l0 114 -72 22 c-102 31 -160 63 -200 110 -43 49 -58 98 -58 182 0 122 75 220
198 258 35 11 79 20 98 20 32 0 34 2 34 35 l0 35 50 0 50 0 0 -35z"/>
<path d="M5929 7685 c-35 -19 -53 -63 -40 -98 10 -26 57 -64 67 -55 3 3 4 42
2 86 l-3 80 -26 -13z"/>
<path d="M6060 7145 c0 -117 3 -121 60 -82 37 25 55 65 46 103 -6 22 -77 84
-98 84 -4 0 -8 -47 -8 -105z"/>
<path d="M2363 7939 c-335 -37 -690 -200 -988 -453 -57 -48 -8 -26 56 26 94
75 261 184 364 235 507 256 1009 240 1436 -44 38 -25 72 -43 76 -40 8 9 11 6
-72 60 -90 57 -211 118 -303 151 -161 57 -397 85 -569 65z"/>
<path d="M4024 7877 l-29 -32 30 25 c17 14 32 26 34 28 2 1 2 4 -1 7 -2 3 -18
-10 -34 -28z"/>
<path d="M4073 7899 c1 -4 -7 -14 -18 -22 -11 -9 -18 -18 -15 -20 3 -3 19 7
37 22 26 21 28 27 13 27 -10 0 -18 -4 -17 -7z"/>
<path d="M9710 7790 l0 -50 355 0 355 0 0 50 0 50 -63 0 c-62 0 -63 0 -72 -32
-16 -55 -85 -48 -85 8 l0 24 -130 0 -130 0 -7 -30 c-10 -54 -79 -54 -89 0 -6
30 -7 30 -70 30 l-64 0 0 -50z"/>
<path d="M593 7659 c-221 -42 -305 -318 -148 -484 18 -19 36 -35 42 -35 5 0
17 14 27 31 17 29 17 31 0 50 -12 13 -21 16 -28 9 -15 -15 -30 -12 -17 4 16
19 3 46 -23 46 -18 1 -19 2 -6 13 22 17 13 47 -13 47 -20 1 -21 2 -4 14 9 7
17 19 17 26 0 7 -8 19 -17 26 -17 12 -17 13 3 14 26 0 39 36 17 44 -8 3 -11
11 -8 17 5 7 10 8 18 0 15 -15 39 19 25 37 -15 17 -2 28 15 13 18 -14 40 9 31
33 -3 9 -2 16 4 16 6 0 12 -5 14 -11 6 -17 38 2 38 22 0 10 5 19 10 19 6 0 10
-7 10 -15 0 -24 37 -18 44 8 l7 22 9 -22 c11 -26 50 -32 50 -7 0 8 4 13 10 9
5 -3 7 -12 4 -19 -3 -7 3 -17 13 -20 13 -5 25 1 40 19 13 14 23 30 23 35 0 12
-77 38 -125 43 -22 2 -59 1 -82 -4z"/>
<path d="M1020 7663 c0 -5 -79 -129 -175 -278 -284 -441 -445 -694 -445 -699
0 -3 142 -5 315 -6 l315 0 0 35 c0 28 -4 35 -20 35 -11 0 -20 5 -20 10 0 6 8
10 17 8 27 -5 28 30 1 35 l-23 4 23 2 c15 1 22 7 22 20 0 12 -8 21 -22 24
l-23 4 23 2 c15 1 22 7 22 20 0 12 -8 21 -22 24 l-23 4 23 2 c15 1 22 7 22 20
0 12 -8 21 -22 24 l-23 4 23 2 c15 1 22 7 22 20 0 12 -8 21 -22 24 l-23 4 23
2 c15 1 22 7 22 21 0 12 -5 17 -14 14 -8 -3 -17 -1 -21 5 -3 7 2 11 14 11 12
0 21 7 21 15 0 8 -9 15 -20 15 -11 0 -20 5 -20 10 0 6 9 10 20 10 11 0 20 7
20 15 0 8 -9 15 -20 15 -11 0 -20 5 -20 10 0 6 9 10 20 10 11 0 20 7 20 15 0
8 -9 15 -20 15 -11 0 -20 5 -20 10 0 6 9 10 20 10 11 0 20 7 20 15 0 8 -9 15
-20 15 -11 0 -20 5 -20 10 0 6 9 10 20 10 27 0 25 28 -2 33 l-23 4 23 2 c15 1
22 7 22 20 0 12 -8 21 -22 24 l-23 4 23 2 c15 1 22 7 22 20 0 12 -8 21 -22 24
l-23 4 23 2 c15 1 22 7 22 20 0 12 -8 21 -22 24 l-23 4 23 2 c15 1 22 7 22 20
0 12 -8 21 -22 24 l-23 4 23 2 c17 1 22 6 20 19 -2 9 -8 17 -15 17 -6 0 -15 3
-19 8 -4 4 2 7 14 7 20 0 22 5 22 60 0 33 -2 60 -5 60 -3 0 -5 -3 -5 -7z m-93
-870 c-2 -2 -81 -2 -175 -1 l-171 3 172 267 172 268 3 -267 c1 -146 1 -268 -1
-270z"/>
<path d="M9770 7640 c0 -25 4 -30 25 -30 21 0 25 5 25 30 0 25 -4 30 -25 30
-21 0 -25 -5 -25 -30z"/>
<path d="M9880 7640 c0 -27 3 -31 23 -28 16 2 22 10 22 28 0 18 -6 26 -22 28
-20 3 -23 -1 -23 -28z"/>
<path d="M9980 7640 c0 -25 4 -30 25 -30 21 0 25 5 25 30 0 25 -4 30 -25 30
-21 0 -25 -5 -25 -30z"/>
<path d="M10090 7640 c0 -25 4 -30 25 -30 21 0 25 5 25 30 0 25 -4 30 -25 30
-21 0 -25 -5 -25 -30z"/>
<path d="M10199 7666 c-7 -38 -2 -51 21 -51 20 0 25 5 25 25 0 18 -6 26 -22
28 -13 2 -23 1 -24 -2z"/>
<path d="M10304 7640 c0 -14 7 -20 23 -20 16 0 23 6 23 20 0 14 -7 20 -23 20
-16 0 -23 -6 -23 -20z"/>
<path d="M803 7528 c-33 -51 -91 -140 -128 -198 -37 -58 -75 -116 -84 -130
-10 -14 -28 -44 -41 -67 -13 -24 -28 -43 -34 -43 -13 -1 24 -30 37 -30 5 0 6
8 3 17 -4 10 -4 14 0 11 3 -4 15 3 24 15 17 21 17 23 2 41 -16 18 -16 18 5 12
27 -8 39 9 21 31 -11 14 -10 15 8 9 25 -8 39 15 21 34 -9 10 -8 12 5 7 20 -7
45 18 28 28 -5 3 -10 11 -10 17 0 7 5 6 15 -2 12 -10 16 -9 22 6 4 10 2 19 -5
22 -21 7 -13 22 9 19 12 -1 24 4 27 12 3 10 0 12 -11 8 -11 -4 -14 -2 -10 9 3
9 13 12 23 9 22 -7 33 17 17 35 -9 10 -8 12 5 7 9 -3 22 0 28 8 8 10 7 16 -7
23 -10 6 -15 14 -11 18 4 4 14 1 23 -6 12 -10 16 -9 21 5 4 10 1 21 -7 25 -7
5 -10 12 -6 16 3 4 13 2 21 -5 11 -9 15 -8 20 5 3 9 2 22 -4 29 -8 9 -6 14 5
19 9 3 13 2 10 -4 -3 -6 -3 -10 2 -10 4 0 18 15 30 34 16 25 19 36 10 45 -6 6
-14 11 -17 11 -3 0 -33 -42 -67 -92z"/>
<path d="M10623 7538 c32 -57 75 -183 92 -264 26 -132 22 -432 -8 -577 -8 -37
-11 -67 -7 -67 11 0 39 190 46 315 7 123 -8 289 -37 402 -20 80 -96 253 -111
253 -5 0 6 -28 25 -62z"/>
<path d="M9770 7545 c0 -20 5 -25 25 -25 20 0 25 5 25 25 0 20 -5 25 -25 25
-20 0 -25 -5 -25 -25z"/>
<path d="M9880 7545 c0 -20 5 -25 25 -25 20 0 25 5 25 25 0 20 -5 25 -25 25
-20 0 -25 -5 -25 -25z"/>
<path d="M9980 7545 c0 -20 5 -25 25 -25 20 0 25 5 25 25 0 20 -5 25 -25 25
-20 0 -25 -5 -25 -25z"/>
<path d="M10090 7545 c0 -20 5 -25 25 -25 20 0 25 5 25 25 0 20 -5 25 -25 25
-20 0 -25 -5 -25 -25z"/>
<path d="M10199 7568 c0 -2 -2 -13 -3 -25 -2 -19 2 -23 26 -23 23 0 28 4 28
25 0 20 -5 25 -25 25 -14 0 -25 -1 -26 -2z"/>
<path d="M10309 7568 c0 -2 -2 -13 -3 -25 -2 -18 2 -23 21 -23 18 0 23 5 23
25 0 18 -5 25 -20 25 -11 0 -20 -1 -21 -2z"/>
<path d="M9770 7450 c0 -25 4 -30 25 -30 21 0 25 5 25 30 0 25 -4 30 -25 30
-21 0 -25 -5 -25 -30z"/>
<path d="M9880 7448 c0 -23 4 -28 26 -28 22 0 25 4 22 27 -2 19 -9 27 -25 28
-19 1 -23 -3 -23 -27z"/>
<path d="M9985 7471 c-3 -2 -5 -15 -5 -28 0 -18 5 -23 25 -23 21 0 25 5 25 28
0 21 -5 28 -20 28 -12 0 -23 -2 -25 -5z"/>
<path d="M10090 7450 c0 -25 4 -30 25 -30 21 0 25 5 25 30 0 25 -4 30 -25 30
-21 0 -25 -5 -25 -30z"/>
<path d="M10215 7471 c-11 -3 -20 -15 -20 -26 0 -27 48 -28 53 -1 5 24 -8 34
-33 27z"/>
<path d="M3386 7384 c-9 -8 -16 -32 -16 -53 0 -34 3 -38 25 -38 24 0 25 3 25
53 0 56 -8 65 -34 38z"/>
<path d="M3870 7345 c0 -55 4 -61 34 -49 33 13 11 104 -25 104 -5 0 -9 -25 -9
-55z"/>
<path d="M3296 7244 c-16 -16 -20 -53 -18 -183 1 -85 12 -96 100 -96 l67 0 -2
48 -1 47 204 0 204 0 0 -51 0 -51 65 4 c95 6 98 11 96 155 -1 99 -4 120 -18
131 -13 9 -99 12 -349 12 -289 0 -335 -2 -348 -16z"/>
<path d="M3485 6970 l0 -30 156 0 157 0 4 30 5 30 -162 0 -161 0 1 -30z"/>
<path d="M8196 6974 c-9 -9 -16 -32 -16 -55 l0 -39 43 0 42 0 -1 39 c-1 63
-34 89 -68 55z m44 -54 c0 -11 -6 -20 -14 -20 -18 0 -29 16 -21 30 11 18 35
11 35 -10z"/>
<path d="M8130 6875 l0 -35 95 0 95 0 0 35 c0 28 -4 35 -19 35 -13 0 -21 -8
-23 -22 -3 -20 -10 -23 -55 -26 -53 -3 -58 1 -54 36 1 6 -7 12 -19 12 -16 0
-20 -6 -20 -35z"/>
<path d="M3815 6840 c-16 -26 19 -174 65 -276 84 -188 265 -353 467 -429 48
-19 91 -31 95 -29 14 9 9 24 -8 24 -9 0 -52 15 -95 34 -263 114 -442 330 -495
596 -18 94 -19 96 -29 80z"/>
<path d="M8040 6750 l0 -30 185 0 185 0 0 30 0 30 -185 0 -185 0 0 -30z"/>
<path d="M6355 6614 c64 -58 267 -188 383 -247 201 -102 381 -163 572 -192
187 -29 490 -13 583 30 l32 15 -30 -5 c-16 -2 -61 -11 -100 -20 -337 -73 -789
22 -1163 246 -96 58 -277 183 -287 199 -3 6 -12 10 -18 10 -7 -1 6 -17 28 -36z"/>
<path d="M618 6574 c-13 -13 -9 -195 7 -293 25 -152 78 -290 149 -389 48 -68
42 -33 -7 40 -88 131 -128 274 -136 491 -3 87 -9 155 -13 151z"/>
<path d="M8250 6485 c0 -8 9 -15 20 -15 11 0 20 7 20 15 0 8 -9 15 -20 15 -11
0 -20 -7 -20 -15z"/>
<path d="M10180 6478 c-40 -15 -77 -20 -138 -20 -62 1 -84 -3 -88 -13 -8 -20
26 -90 85 -174 28 -41 51 -78 51 -82 0 -4 -16 -13 -35 -19 -40 -13 -46 -37
-13 -49 20 -7 17 -11 -38 -46 -94 -60 -218 -195 -268 -290 -78 -152 -41 -309
94 -391 95 -58 184 -74 409 -74 208 0 284 11 364 51 118 59 150 138 123 300
-25 149 -98 264 -234 366 l-80 61 72 4 c80 5 132 27 148 63 17 38 4 55 -44 55
-33 0 -39 3 -30 12 16 16 15 48 0 49 -34 3 -66 -4 -95 -21 -41 -24 -42 -13 -3
25 28 27 90 114 90 127 0 3 -22 8 -50 12 -27 4 -80 22 -116 41 -78 41 -122 44
-204 13z m335 -237 c-3 -5 -26 -21 -51 -35 -27 -15 -41 -19 -33 -10 7 8 29 24
48 34 42 22 44 23 36 11z m81 -70 c-27 -29 -166 -57 -166 -33 0 11 118 50 154
51 28 1 28 0 12 -18z m-356 -204 c0 -7 23 -20 51 -30 35 -13 56 -28 69 -49 10
-18 17 -35 15 -38 -3 -4 -26 -10 -52 -13 -39 -4 -49 -2 -64 17 -18 21 -18 21
-19 -22 0 -32 4 -44 18 -48 96 -31 132 -65 132 -128 0 -73 -60 -136 -130 -136
-16 0 -20 -7 -20 -30 0 -23 -5 -30 -19 -30 -14 0 -21 8 -23 27 -2 21 -10 29
-33 33 -51 11 -90 37 -110 74 -11 19 -16 39 -12 43 4 4 29 10 55 13 43 5 48 3
64 -22 25 -40 38 -34 38 18 0 43 -2 46 -37 60 -69 27 -82 37 -98 70 -33 70 7
144 89 165 27 7 46 17 46 25 0 8 9 14 20 14 11 0 20 -6 20 -13z"/>
<path d="M8250 6431 c0 -15 6 -21 21 -21 14 0 19 5 17 17 -5 26 -38 29 -38 4z"/>
<path d="M4740 6421 l-105 -6 0 -290 0 -290 165 0 165 0 3 284 c1 157 -1 288
-5 292 -13 13 -108 17 -223 10z m150 -36 c0 -12 -17 -15 -90 -15 -73 0 -90 3
-90 15 0 12 17 15 90 15 73 0 90 -3 90 -15z m50 -240 c0 -165 -3 -215 -12
-215 -35 -1 -235 -1 -250 -1 -17 1 -18 18 -18 216 l0 215 140 0 140 0 0 -215z
m-115 -265 c0 -18 -6 -26 -23 -28 -13 -2 -25 3 -28 12 -10 26 4 48 28 44 17
-2 23 -10 23 -28z"/>
<path d="M4770 6155 c-20 -24 -3 -55 30 -55 20 0 31 6 35 20 8 25 -10 50 -35
50 -10 0 -23 -7 -30 -15z"/>
<path d="M4742 6088 c-7 -7 -12 -25 -12 -40 l0 -28 70 0 70 0 0 29 c0 31 -24
59 -35 41 -8 -13 -58 -13 -71 0 -7 7 -14 6 -22 -2z"/>
<path d="M4753 5963 c26 -2 68 -2 95 0 26 2 4 3 -48 3 -52 0 -74 -1 -47 -3z"/>
<path d="M8250 6370 c0 -15 5 -20 18 -18 9 2 17 10 17 18 0 8 -8 16 -17 18
-13 2 -18 -3 -18 -18z"/>
<path d="M1311 6189 c-18 -6 -31 -12 -29 -14 2 -3 19 0 37 5 18 5 40 6 49 4
15 -5 15 -4 2 5 -17 12 -14 12 -59 0z"/>
<path d="M1927 6169 c7 -7 15 -10 18 -7 3 3 -2 9 -12 12 -14 6 -15 5 -6 -5z"/>
<path d="M8535 6155 c50 -44 205 -150 313 -214 109 -65 262 -144 262 -136 0 3
-37 23 -82 46 -110 55 -262 147 -373 225 -49 35 -103 73 -120 85 l-30 21 30
-27z"/>
<path d="M1964 6152 c2 -4 -28 -6 -67 -6 -140 3 -135 5 -205 -109 -68 -111
-90 -143 -95 -136 -1 2 -10 20 -20 39 -10 19 -40 70 -67 113 -28 43 -50 83
-50 88 0 6 -51 9 -125 8 -69 -1 -125 -5 -125 -9 0 -3 7 -15 15 -25 9 -11 58
-85 110 -165 52 -80 98 -149 102 -155 29 -35 51 -74 55 -97 l5 -28 -76 -1
c-42 -1 -88 0 -102 1 -24 1 -27 -3 -31 -36 -10 -82 -8 -83 104 -86 l99 -3 0
-192 1 -193 108 0 c123 0 117 -4 118 94 0 31 1 63 1 71 1 10 12 15 36 15 19 0
35 5 35 10 0 6 -15 10 -34 10 -33 0 -33 1 -40 53 -3 28 -6 71 -6 95 l0 42 134
0 134 0 6 26 c4 14 4 41 0 59 l-6 34 -131 3 c-148 3 -153 7 -108 75 14 22 39
59 54 82 15 23 25 46 22 52 -4 5 -1 8 7 7 7 -2 12 5 12 14 -1 10 2 16 6 13 6
-4 141 190 158 226 2 4 -6 9 -18 12 -11 3 -18 2 -16 -1z"/>
<path d="M8165 6070 c-16 -7 -17 -9 -3 -9 9 -1 20 4 23 9 7 11 7 11 -20 0z"/>
<path d="M7925 6008 c-345 -89 -740 -160 -1095 -197 -96 -11 -157 -19 -135
-20 116 -3 614 69 916 133 254 54 578 137 519 134 -8 -1 -100 -23 -205 -50z"/>
<path d="M2205 5982 c4 -7 1 -20 -6 -28 -6 -8 -9 -17 -5 -21 3 -3 6 -1 6 7 0
10 3 10 14 1 23 -19 26 2 4 29 -11 14 -17 19 -13 12z"/>
<path d="M962 5930 c-18 -27 -32 -52 -32 -57 0 -4 12 10 25 32 14 22 25 36 25
31 0 -5 6 -3 13 3 8 6 18 7 23 3 4 -4 2 2 -6 13 -8 11 -15 21 -15 22 -1 1 -15
-20 -33 -47z"/>
<path d="M5230 5940 c0 -14 209 -77 345 -105 139 -28 371 -56 453 -54 39 1 24
4 -49 10 -242 19 -525 74 -684 134 -36 13 -65 20 -65 15z"/>
<path d="M2271 5875 c0 -5 6 -21 14 -35 8 -14 14 -20 14 -15 0 6 -6 21 -14 35
-8 14 -14 21 -14 15z"/>
<path d="M3225 5835 c-115 -29 -185 -77 -257 -176 -29 -40 -60 -72 -74 -75
-13 -3 -41 -25 -63 -49 -51 -56 -68 -129 -52 -225 11 -69 172 -555 189 -572 6
-6 15 -8 20 -4 5 3 13 115 17 258 l7 253 30 43 c28 41 30 42 71 35 71 -13 277
-7 352 11 39 9 123 33 188 53 114 35 118 36 132 17 19 -25 39 -94 66 -232 12
-61 28 -120 35 -129 11 -16 13 -14 19 20 4 21 5 104 1 185 -4 81 -9 207 -12
280 l-6 134 -162 79 c-106 52 -185 85 -231 94 -85 18 -202 18 -270 0z"/>
<path d="M2252 5810 c0 -14 2 -19 5 -12 2 6 2 18 0 25 -3 6 -5 1 -5 -13z"/>
<path d="M901 5804 c0 -11 3 -14 6 -6 3 7 2 16 -1 19 -3 4 -6 -2 -5 -13z"/>
<path d="M6528 5783 c23 -2 59 -2 80 0 20 2 1 4 -43 4 -44 0 -61 -2 -37 -4z"/>
<path d="M6178 5773 c50 -2 134 -2 185 0 50 1 9 3 -93 3 -102 0 -143 -2 -92
-3z"/>
<path d="M9210 5750 c19 -11 40 -19 45 -19 6 0 -6 8 -25 19 -19 11 -39 19 -45
19 -5 0 6 -8 25 -19z"/>
<path d="M9320 5700 c8 -5 20 -10 25 -10 6 0 3 5 -5 10 -8 5 -19 10 -25 10 -5
0 -3 -5 5 -10z"/>
<path d="M891 5584 c0 -11 3 -14 6 -6 3 7 2 16 -1 19 -3 4 -6 -2 -5 -13z"/>
<path d="M2305 5590 c-3 -5 -1 -10 4 -10 6 0 11 5 11 10 0 6 -2 10 -4 10 -3 0
-8 -4 -11 -10z"/>
<path d="M10861 5422 c-8 -14 -4 -27 15 -55 38 -57 129 -233 173 -337 71 -170
135 -413 161 -620 12 -91 13 -409 2 -503 -5 -40 -4 -63 1 -58 16 16 25 90 32
251 8 175 -3 312 -41 520 -31 166 -110 414 -130 406 -8 -3 -14 -1 -14 3 0 5 5
11 11 13 18 6 -175 398 -196 398 -2 0 -9 -8 -14 -18z m116 -187 c0 -8 -4 -12
-9 -9 -4 3 -8 9 -8 15 0 5 4 9 8 9 5 0 9 -7 9 -15z m28 -46 c10 -30 2 -32 -12
-3 -6 13 -7 24 -3 24 5 0 12 -9 15 -21z m29 -78 c-6 -6 -24 19 -24 34 1 6 7 1
15 -9 8 -11 12 -22 9 -25z m65 -150 c0 -14 -1 -14 -6 -1 -3 8 -10 24 -15 35
-9 20 -9 20 6 1 9 -11 16 -27 15 -35z m21 -56 c0 -5 -5 -3 -10 5 -5 8 -10 20
-10 25 0 6 5 3 10 -5 5 -8 10 -19 10 -25z m67 -267 c-3 -8 -6 -5 -6 6 -1 11 2
17 5 13 3 -3 4 -12 1 -19z m10 -50 c-3 -8 -6 -5 -6 6 -1 11 2 17 5 13 3 -3 4
-12 1 -19z"/>
<path d="M969 5402 c5 -10 18 -25 27 -33 11 -9 9 -2 -6 19 -26 35 -36 42 -21
14z"/>
<path d="M2235 5410 c-3 -5 -13 -7 -23 -4 -14 5 -15 4 -2 -5 12 -8 10 -15 -14
-40 -16 -17 -34 -28 -39 -24 -6 3 -7 2 -4 -4 9 -15 -39 -57 -55 -47 -7 4 -10
4 -6 -1 4 -4 2 -15 -5 -24 -7 -8 1 -6 18 6 44 32 157 153 142 153 -3 0 -8 -4
-12 -10z"/>
<path d="M1045 5349 c-4 -6 -14 -8 -24 -4 -13 5 -14 4 -3 -6 10 -11 15 -10 29
4 10 9 14 17 11 17 -4 0 -10 -5 -13 -11z"/>
<path d="M3575 5333 c-33 -18 -58 -45 -80 -85 -22 -40 5 -38 28 1 9 16 33 39
52 51 42 26 73 21 123 -17 23 -17 37 -22 44 -15 12 12 -42 54 -91 71 -42 14
-39 14 -76 -6z"/>
<path d="M1087 5293 c-9 -8 12 -33 27 -33 6 0 3 5 -7 11 -9 6 -15 14 -12 20 7
10 2 12 -8 2z"/>
<path d="M3149 5247 c-38 -25 -82 -85 -73 -99 3 -5 27 14 53 42 39 42 53 50
83 50 21 0 50 -10 72 -25 40 -27 56 -31 56 -15 0 18 -93 70 -125 70 -18 0 -47
-10 -66 -23z"/>
<path d="M1157 5229 c7 -7 15 -10 18 -7 3 3 -2 9 -12 12 -14 6 -15 5 -6 -5z"/>
<path d="M2040 5230 c-9 -6 -10 -10 -3 -10 6 0 15 5 18 10 8 12 4 12 -15 0z"/>
<path d="M5561 5221 c-24 -15 -31 -89 -42 -431 -10 -321 -7 -440 11 -440 12 0
28 49 40 130 15 97 39 192 53 208 14 17 42 13 192 -28 109 -30 133 -34 265
-34 80 -1 159 2 175 6 28 6 33 3 59 -37 30 -48 27 -20 40 -393 5 -147 31 -151
71 -11 32 115 45 150 55 144 11 -7 22 28 15 47 -3 8 6 50 20 94 32 98 45 197
34 255 -4 24 -8 47 -9 51 -1 19 -68 81 -102 95 -21 8 -38 19 -38 24 0 5 -29
39 -65 77 -49 52 -82 77 -137 103 -70 33 -77 34 -188 33 -92 0 -128 -5 -179
-23 -40 -14 -74 -20 -90 -16 -14 4 -57 40 -96 81 -51 54 -74 72 -84 65z"/>
<path d="M3595 5190 c-20 -22 -22 -77 -5 -110 15 -29 56 -36 80 -15 29 26 27
95 -3 123 -29 27 -49 28 -72 2z m73 -23 c4 -20 -25 -34 -40 -19 -15 15 -1 44
19 40 10 -2 19 -11 21 -21z"/>
<path d="M8320 5180 c-50 -12 -178 -75 -206 -101 -56 -53 -73 -208 -30 -274
18 -27 20 -28 27 -10 4 11 18 43 30 70 l21 50 14 -41 c8 -22 23 -50 34 -62 26
-27 25 -32 -3 -32 -37 0 -121 -70 -104 -87 3 -3 23 8 44 25 68 54 103 51 167
-12 40 -41 51 -45 43 -16 -5 19 -4 19 32 4 63 -26 118 -62 135 -89 16 -25 16
-30 1 -79 -9 -29 -15 -66 -13 -82 3 -29 4 -28 47 31 71 96 92 115 144 130 94
28 127 -12 108 -128 -13 -79 -32 -121 -73 -159 l-29 -27 15 -88 c19 -109 45
-193 63 -200 22 -9 137 54 194 105 69 62 123 147 156 246 24 72 27 96 27 221
0 269 -72 457 -204 529 -50 27 -57 28 -154 24 -84 -5 -107 -3 -137 12 -86 44
-252 63 -349 40z"/>
<path d="M10441 5144 c-2 -69 82 -264 154 -358 44 -58 41 -33 -5 34 -57 83
-106 190 -129 280 -13 50 -20 65 -20 44z"/>
<path d="M3400 5141 c0 -5 9 -7 20 -4 11 3 20 7 20 9 0 2 -9 4 -20 4 -11 0
-20 -4 -20 -9z"/>
<path d="M3196 5118 c-38 -54 2 -148 56 -135 17 5 30 18 37 39 27 78 -50 157
-93 96z m72 -21 c4 -21 -25 -34 -40 -19 -8 8 -8 16 2 27 16 19 34 15 38 -8z"/>
<path d="M3441 5110 c0 -8 4 -22 9 -30 12 -18 12 -2 0 25 -6 13 -9 15 -9 5z"/>
<path d="M3411 5084 c0 -11 3 -14 6 -6 3 7 2 16 -1 19 -3 4 -6 -2 -5 -13z"/>
<path d="M998 5030 c-22 -39 -15 -39 12 0 12 17 18 30 13 30 -4 0 -16 -14 -25
-30z"/>
<path d="M3421 5024 c0 -11 3 -14 6 -6 3 7 2 16 -1 19 -3 4 -6 -2 -5 -13z"/>
<path d="M3484 4990 c0 -13 4 -16 10 -10 7 7 7 13 0 20 -6 6 -10 3 -10 -10z"/>
<path d="M3510 4976 c0 -2 13 -6 29 -8 17 -2 28 -1 25 4 -5 8 -54 12 -54 4z"/>
<path d="M3441 4934 c0 -11 3 -14 6 -6 3 7 2 16 -1 19 -3 4 -6 -2 -5 -13z"/>
<path d="M3582 4925 c0 -16 2 -22 5 -12 2 9 2 23 0 30 -3 6 -5 -1 -5 -18z"/>
<path d="M10748 4887 c-5 -10 -8 -34 -8 -53 0 -31 3 -34 30 -34 27 0 30 3 30
33 0 17 -5 39 -10 47 -7 11 -10 6 -10 -19 0 -42 -17 -31 -22 14 -2 24 -4 26
-10 12z"/>
<path d="M883 4824 c-6 -13 -7 -24 -3 -24 9 0 25 39 18 45 -2 2 -8 -7 -15 -21z"/>
<path d="M3535 4840 c-3 -6 1 -7 9 -4 18 7 21 14 7 14 -6 0 -13 -4 -16 -10z"/>
<path d="M3498 4833 c7 -3 16 -2 19 1 4 3 -2 6 -13 5 -11 0 -14 -3 -6 -6z"/>
<path d="M855 4760 c-9 -16 -13 -30 -11 -30 3 0 12 14 21 30 9 17 13 30 11 30
-3 0 -12 -13 -21 -30z"/>
<path d="M828 4705 c-3 -11 -9 -29 -13 -40 -3 -11 1 -7 10 8 9 16 15 33 12 40
-2 6 -6 3 -9 -8z"/>
<path d="M8180 4660 c-42 -42 -20 -140 32 -140 55 0 80 96 35 138 -29 27 -41
28 -67 2z m40 -30 c0 -13 -7 -20 -20 -20 -13 0 -20 7 -20 20 0 13 7 20 20 20
13 0 20 -7 20 -20z"/>
<path d="M5715 4622 c-35 -22 -60 -50 -52 -58 3 -3 23 6 44 20 57 39 96 35
145 -14 45 -45 48 -46 48 -24 0 9 -17 34 -39 55 -32 32 -46 39 -77 39 -22 0
-52 -8 -69 -18z"/>
<path d="M8056 4575 c-3 -8 -1 -15 4 -15 6 0 10 7 10 15 0 8 -2 15 -4 15 -2 0
-6 -7 -10 -15z"/>
<path d="M6077 4555 c-20 -14 -37 -29 -37 -34 0 -20 15 -18 47 6 54 41 96 37
145 -15 43 -47 48 -49 48 -25 0 9 -18 33 -40 55 -51 48 -104 52 -163 13z"/>
<path d="M5722 4537 c-40 -43 -20 -127 30 -127 37 0 68 72 47 112 -23 44 -46
49 -77 15z m35 -13 c8 -21 -13 -42 -28 -27 -13 13 -5 43 11 43 6 0 13 -7 17
-16z"/>
<path d="M8009 4508 c-13 -18 -16 -27 -8 -21 9 7 20 9 24 5 5 -4 5 -1 1 6 -4
7 -2 19 4 27 7 8 10 15 7 15 -3 0 -16 -15 -28 -32z"/>
<path d="M6085 4480 c-35 -39 -13 -130 32 -130 27 0 53 39 53 79 0 65 -47 93
-85 51z m43 -23 c2 -12 -3 -17 -17 -17 -12 0 -21 6 -21 13 0 31 32 34 38 4z"/>
<path d="M8053 4455 c0 -22 2 -30 4 -17 2 12 2 30 0 40 -3 9 -5 -1 -4 -23z"/>
<path d="M752 4460 c0 -14 2 -19 5 -12 2 6 2 18 0 25 -3 6 -5 1 -5 -13z"/>
<path d="M5950 4462 c0 -5 7 -9 15 -9 8 0 12 4 9 9 -3 4 -9 8 -15 8 -5 0 -9
-4 -9 -8z"/>
<path d="M10747 4451 c-6 -24 0 -31 25 -31 13 0 18 7 18 25 0 31 -35 35 -43 6z"/>
<path d="M7982 4435 c0 -16 2 -22 5 -12 2 9 2 23 0 30 -3 6 -5 -1 -5 -18z"/>
<path d="M5958 4403 c-27 -31 -38 -61 -38 -102 0 -43 8 -71 20 -71 8 0 44 179
37 186 -2 2 -11 -4 -19 -13z"/>
<path d="M7980 4391 c0 -6 4 -13 10 -16 6 -3 7 1 4 9 -7 18 -14 21 -14 7z"/>
<path d="M8030 4385 c-14 -8 -20 -14 -14 -15 5 0 19 7 30 15 24 18 16 19 -16
0z"/>
<path d="M5822 4298 c-7 -7 -12 -28 -11 -47 l0 -36 19 40 c10 22 19 43 19 48
1 11 -14 8 -27 -5z"/>
<path d="M8131 4286 c-6 -7 -25 -19 -41 -26 -33 -14 -41 -31 -12 -23 25 6 78
50 71 57 -3 4 -11 0 -18 -8z"/>
<path d="M732 4260 c0 -14 2 -19 5 -12 2 6 2 18 0 25 -3 6 -5 1 -5 -13z"/>
<path d="M3670 4205 c0 -3 4 -13 10 -23 5 -9 21 -52 35 -96 30 -93 33 -204 9
-287 -16 -55 -112 -249 -124 -249 -3 0 -21 96 -39 214 l-34 214 28 36 c15 20
26 38 24 40 -2 2 -27 15 -56 30 l-51 26 -49 -27 c-26 -14 -50 -28 -52 -29 -2
-2 9 -20 24 -39 l27 -36 -33 -215 c-19 -118 -37 -214 -41 -214 -11 0 -116 223
-127 272 -18 78 -13 170 14 265 14 47 31 93 37 101 32 38 -164 -36 -262 -99
-145 -94 -256 -251 -279 -399 -6 -36 -11 -217 -11 -402 l0 -336 40 -184 c22
-101 44 -200 49 -220 8 -34 7 -38 -10 -38 -25 0 -34 -25 -21 -56 l12 -24 -318
0 c-174 0 -323 -4 -330 -8 -9 -6 -12 -35 -10 -108 l3 -99 211 -5 210 -5 -327
-784 c-179 -432 -330 -791 -335 -798 -6 -10 -50 -19 -129 -28 -243 -29 -375
-61 -375 -91 0 -100 1092 -180 2930 -215 678 -13 2568 -7 3115 10 1535 47
2356 117 2373 202 5 29 -101 58 -308 84 -216 27 -197 20 -203 72 -3 32 -13 54
-34 75 -28 28 -37 30 -278 63 -138 20 -260 37 -272 40 -14 3 -30 23 -47 58
l-24 52 -1 -53 -1 -53 -152 3 -153 3 -3 183 -2 182 155 0 155 0 0 110 0 109
398 3 398 3 42 28 c60 39 76 80 106 267 14 91 50 323 80 515 31 193 78 494
106 670 27 176 50 334 50 350 -1 65 -61 151 -123 174 -19 7 -220 11 -600 11
-537 0 -575 -2 -613 -19 -23 -10 -53 -35 -68 -54 -30 -39 -38 -71 -96 -407
-22 -129 -52 -304 -67 -387 l-26 -153 -194 0 c-184 0 -195 -1 -223 -22 l-30
-22 -444 11 c-253 6 -451 15 -462 21 -12 6 -513 10 -1439 10 -781 0 -1424 1
-1430 1 -5 1 -4 6 3 13 7 7 12 25 12 41 0 27 -3 29 -30 25 -16 -3 -30 -4 -30
-2 0 1 7 15 15 30 11 22 15 64 15 169 l0 140 88 0 c91 0 117 9 175 57 l27 23
-36 113 c-19 62 -34 123 -32 135 6 39 38 44 266 46 l216 1 60 42 c34 23 78 54
98 68 21 14 37 27 38 30 0 3 -40 65 -88 138 l-89 132 -114 -83 c-63 -46 -168
-122 -234 -169 l-120 -86 -6 212 c-6 219 -14 267 -61 361 -53 106 -165 213
-283 273 -86 43 -225 84 -225 67z m-471 -2030 c31 -36 49 -80 37 -93 -7 -7
-13 -3 -70 42 -44 35 -66 29 -66 -18 0 -45 36 -161 66 -213 29 -50 30 -63 4
-63 -13 0 -18 -5 -14 -15 6 -16 -16 -21 -30 -7 -4 4 -18 7 -29 7 -13 0 -26 9
-32 22 -7 17 -15 21 -32 17 -18 -5 -25 0 -33 22 -11 28 -3 49 99 287 26 60 55
63 100 12z m2311 20 c0 -13 -43 -15 -325 -15 -289 0 -326 -2 -332 -16 -3 -9 1
-113 10 -232 8 -120 14 -218 13 -219 -1 -1 -43 -7 -93 -14 -53 -7 -105 -19
-122 -30 -95 -58 -94 -201 1 -259 28 -17 51 -20 146 -20 l112 0 0 -335 0 -335
-282 -1 c-156 -1 -394 -4 -531 -8 l-247 -6 0 753 0 752 825 0 c727 0 825 -2
825 -15z m1736 -155 l20 -170 -68 0 -68 0 0 170 0 170 48 0 48 0 20 -170z
m933 113 c0 -10 -4 -27 -8 -37 -7 -18 -9 -16 -19 14 -15 42 -16 40 8 40 13 0
20 -6 19 -17z m-536 -134 c32 -78 56 -143 53 -146 -10 -11 -145 -15 -230 -8
l-86 7 0 126 c0 161 1 162 119 162 l86 0 58 -141z m-4163 -644 l0 -685 -60 0
-60 0 0 685 0 685 60 0 60 0 0 -685z m2030 676 c0 -4 -106 -78 -234 -164 -187
-124 -244 -157 -280 -162 l-46 -7 0 156 c0 128 3 158 15 162 8 3 101 9 207 13
287 12 338 12 338 2z m-2542 -1363 c-7 -4 -31 -10 -53 -12 -46 -6 -439 -25
-442 -21 -2 1 111 275 250 610 l252 608 3 -589 c2 -464 0 -589 -10 -596z
m3872 407 c0 -206 -2 -375 -4 -375 -2 0 -100 14 -216 30 -257 36 -408 39 -606
10 -75 -11 -138 -19 -140 -18 -4 4 17 621 21 636 3 9 38 12 130 12 l125 0 0
-140 0 -140 130 0 130 0 0 150 c0 83 3 150 8 151 4 0 95 13 202 29 107 15 201
28 208 29 9 1 12 -80 12 -374z m660 -31 l0 -367 -92 7 c-50 3 -104 6 -120 6
l-28 0 0 360 0 360 120 0 120 0 0 -366z m-2006 259 c3 -38 8 -160 11 -273 3
-113 8 -231 11 -262 l6 -57 -121 -3 -121 -3 0 25 c-1 39 41 614 46 628 2 8 28
12 83 12 l79 0 6 -67z m2540 -242 c58 -140 103 -257 101 -260 -5 -5 -168 -30
-197 -31 -17 0 -18 20 -18 277 0 152 2 274 4 272 2 -2 52 -118 110 -258z
m1003 -448 c-2 -2 -50 0 -105 3 -67 5 -102 11 -102 19 0 8 27 7 105 -3 58 -8
104 -17 102 -19z"/>
<path d="M6365 4020 c27 -12 43 -12 25 0 -8 5 -22 9 -30 9 -10 0 -8 -3 5 -9z"/>
<path d="M6330 3950 c0 -5 5 -10 11 -10 5 0 7 5 4 10 -3 6 -8 10 -11 10 -2 0
-4 -4 -4 -10z"/>
<path d="M10886 3897 c3 -10 9 -15 12 -12 3 3 0 11 -7 18 -10 9 -11 8 -5 -6z"/>
<path d="M880 3880 c0 -19 7 -20 179 -20 170 0 179 1 184 20 5 19 0 20 -179
20 -177 0 -184 -1 -184 -20z"/>
<path d="M10732 3871 c-11 -6 -10 -10 3 -15 11 -4 15 -12 10 -24 -5 -13 -4
-14 6 -5 9 9 9 16 1 26 -7 8 -9 17 -5 20 9 10 1 8 -15 -2z"/>
<path d="M10800 3870 c-9 -6 -10 -10 -3 -10 6 0 15 5 18 10 8 12 4 12 -15 0z"/>
<path d="M10871 3867 c2 -1 13 -9 24 -17 19 -14 19 -14 6 3 -7 9 -18 17 -24
17 -6 0 -8 -1 -6 -3z"/>
<path d="M10816 3833 c-6 -14 -5 -15 5 -6 7 7 10 15 7 18 -3 3 -9 -2 -12 -12z"/>
<path d="M10570 3669 c0 -28 2 -30 32 -27 26 3 32 7 33 31 1 24 -3 27 -32 27
-30 0 -33 -3 -33 -31z"/>
<path d="M10660 3670 c0 -27 3 -30 30 -30 27 0 30 3 30 30 0 27 -3 30 -30 30
-27 0 -30 -3 -30 -30z"/>
<path d="M10740 3669 c0 -28 2 -30 33 -27 27 2 33 8 35 31 3 25 1 27 -32 27
-33 0 -36 -2 -36 -31z"/>
<path d="M10830 3670 c0 -27 3 -30 30 -30 27 0 30 3 30 30 0 27 -3 30 -30 30
-27 0 -30 -3 -30 -30z"/>
<path d="M10910 3669 c0 -28 2 -30 33 -27 27 2 33 8 35 31 3 25 1 27 -32 27
-33 0 -36 -2 -36 -31z"/>
<path d="M10570 3590 c0 -27 3 -30 30 -30 27 0 30 3 30 30 0 27 -3 30 -30 30
-27 0 -30 -3 -30 -30z"/>
<path d="M10660 3590 c0 -27 3 -30 30 -30 27 0 30 3 30 30 0 27 -3 30 -30 30
-27 0 -30 -3 -30 -30z"/>
<path d="M10740 3589 c0 -28 2 -30 33 -27 27 2 33 8 35 31 3 25 1 27 -32 27
-33 0 -36 -2 -36 -31z"/>
<path d="M10830 3590 c0 -27 3 -30 30 -30 27 0 30 3 30 30 0 27 -3 30 -30 30
-27 0 -30 -3 -30 -30z"/>
<path d="M10910 3590 c0 -28 3 -30 35 -30 32 0 35 2 35 30 0 28 -3 30 -35 30
-32 0 -35 -2 -35 -30z"/>
<path d="M10570 3510 c0 -27 3 -30 30 -30 27 0 30 3 30 30 0 27 -3 30 -30 30
-27 0 -30 -3 -30 -30z"/>
<path d="M10660 3510 c0 -27 3 -30 30 -30 27 0 30 3 30 30 0 27 -3 30 -30 30
-27 0 -30 -3 -30 -30z"/>
<path d="M10740 3511 c0 -29 3 -31 36 -31 33 0 35 2 32 28 -2 22 -8 28 -35 30
-31 3 -33 1 -33 -27z"/>
<path d="M10830 3510 c0 -29 2 -30 45 -30 l45 0 0 -40 c0 -36 3 -40 25 -40 24
0 25 2 25 70 l0 70 -70 0 -70 0 0 -30z"/>
<path d="M5902 3457 l-42 -23 25 -34 c23 -31 25 -42 21 -90 -3 -30 -18 -187
-32 -347 l-26 -292 37 -51 c24 -33 43 -49 52 -46 8 3 27 6 41 6 20 1 36 12 60
46 l33 45 -31 346 -31 346 25 36 26 36 -43 22 c-52 27 -62 27 -115 0z"/>
<path d="M10570 3430 c0 -27 3 -30 33 -30 32 0 33 2 29 30 -4 25 -9 30 -33 30
-26 0 -29 -4 -29 -30z"/>
<path d="M10660 3430 c0 -27 3 -30 30 -30 27 0 30 3 30 30 0 27 -3 30 -30 30
-27 0 -30 -3 -30 -30z"/>
<path d="M10740 3431 c0 -29 3 -31 36 -31 33 0 35 2 32 28 -2 22 -8 28 -35 30
-31 3 -33 1 -33 -27z"/>
<path d="M10830 3430 c0 -27 3 -30 30 -30 27 0 30 3 30 30 0 27 -3 30 -30 30
-27 0 -30 -3 -30 -30z"/>
<path d="M6495 3375 c131 -131 155 -205 155 -480 l0 -190 40 -3 c22 -1 76 -16
121 -32 72 -27 92 -30 200 -30 l119 0 0 389 c0 343 -2 390 -16 402 -12 10 -89
13 -352 14 l-337 0 70 -70z"/>
<path d="M5687 2724 c-26 -64 -46 -119 -43 -121 15 -16 37 17 77 113 24 59 43
110 42 113 -1 3 -8 7 -15 9 -8 1 -31 -41 -61 -114z"/>
</g>
</svg>
