<?xml version="1.0" standalone="no"?>
<!DOCTYPE svg PUBLIC "-//W3C//DTD SVG 20010904//EN"
 "http://www.w3.org/TR/2001/REC-SVG-20010904/DTD/svg10.dtd">
<svg version="1.0" xmlns="http://www.w3.org/2000/svg"
 width="100.000000pt" height="40.000000pt" viewBox="0 0 463.000000 172.000000"
 preserveAspectRatio="xMidYMid meet">

<g transform="translate(0.000000,172.000000) scale(0.100000,-0.100000)"
fill="#000000" stroke="none">
<path d="M443 1678 c-6 -7 -23 -38 -38 -68 -15 -30 -28 -56 -29 -57 -2 -2 -56
15 -121 37 -141 47 -168 49 -191 15 -15 -23 -14 -30 21 -136 41 -123 43 -114
-24 -151 -24 -13 -31 -24 -31 -47 0 -37 25 -57 114 -95 36 -16 66 -31 66 -35
0 -3 -39 -26 -88 -51 -84 -44 -87 -46 -87 -80 0 -34 2 -36 97 -85 l97 -50 -97
-50 c-95 -49 -97 -51 -97 -85 0 -34 3 -36 90 -82 l90 -46 -90 -44 c-83 -39
-90 -46 -93 -74 -2 -25 3 -37 24 -53 15 -11 33 -21 40 -21 25 0 23 -18 -11
-121 -40 -119 -41 -129 -16 -160 l18 -23 121 41 c134 46 124 48 166 -35 26
-51 28 -53 64 -50 36 3 39 6 83 92 l47 90 46 -93 47 -92 37 3 c36 3 39 6 82
90 25 49 47 88 50 88 3 0 25 -39 50 -88 l45 -87 40 0 c40 0 40 1 80 77 22 42
45 76 50 76 6 0 28 -34 50 -76 38 -73 42 -77 74 -77 32 0 38 5 73 65 20 36 41
65 45 65 4 0 66 -20 137 -44 194 -64 211 -48 147 141 l-39 117 24 16 c13 8 31
26 40 40 15 22 15 27 1 48 -8 12 -51 40 -96 62 l-82 39 86 43 c140 71 137 104
-15 178 -44 21 -80 42 -80 45 0 3 42 27 94 52 138 69 138 99 -4 168 -38 19
-70 37 -70 40 0 3 32 22 72 41 39 19 77 40 85 47 22 23 15 59 -17 84 l-30 24
35 104 c42 125 43 144 9 167 -25 16 -30 15 -140 -21 -63 -21 -119 -36 -125
-34 -6 2 -25 30 -42 63 -26 49 -37 61 -60 63 -40 5 -55 -12 -98 -103 l-37 -80
-43 88 c-33 66 -50 89 -68 94 -37 9 -52 -6 -105 -107 l-49 -95 -44 95 c-24 52
-49 98 -56 102 -7 5 -25 7 -42 6 -27 -3 -34 -12 -74 -92 l-44 -89 -46 89 c-41
80 -49 89 -77 92 -17 2 -35 -3 -41 -10z m68 -239 c18 -33 39 -64 48 -69 13 -6
52 -7 94 -1 4 1 22 30 39 66 18 36 35 65 38 65 4 0 19 -27 35 -61 16 -33 36
-64 45 -68 12 -7 71 -7 113 -2 4 1 22 30 39 66 18 36 35 65 38 65 4 0 19 -27
35 -61 16 -33 36 -64 45 -69 12 -6 72 -7 102 -1 4 0 23 31 42 68 l33 67 17
-32 c9 -17 27 -34 40 -38 18 -4 167 35 198 53 9 5 -27 -103 -48 -143 -13 -23
-14 -35 -6 -50 9 -17 3 -23 -56 -54 l-67 -35 -3 -49 c-4 -58 8 -73 78 -106 28
-13 50 -26 50 -30 0 -4 -19 -15 -41 -26 -79 -35 -89 -48 -89 -115 l0 -59 65
-32 c36 -18 65 -35 65 -38 0 -3 -29 -20 -65 -38 l-66 -32 3 -57 3 -57 65 -38
c53 -30 65 -41 62 -60 -1 -13 10 -64 26 -114 l29 -92 -70 24 c-38 13 -73 21
-78 18 -5 -2 -20 2 -33 11 -35 23 -67 15 -92 -23 l-22 -32 -34 62 -35 63 -59
0 -59 0 -35 -67 -35 -67 -35 67 -35 67 -65 0 -65 0 -34 -64 -34 -64 -28 54
c-37 73 -47 81 -111 77 l-53 -3 -36 -68 -35 -67 -17 35 c-21 44 -44 45 -147
10 -40 -14 -75 -25 -76 -25 -2 0 6 25 16 56 22 62 28 119 16 147 -7 14 2 22
47 42 62 27 87 56 87 100 0 42 -15 58 -85 93 l-59 30 61 31 c71 35 82 50 79
108 -3 53 -17 70 -89 101 l-59 26 65 33 c69 35 87 54 87 98 0 43 -17 63 -80
95 -59 30 -60 31 -45 54 17 25 12 66 -20 155 -8 24 -14 45 -12 47 5 6 145 -42
160 -55 29 -23 70 -9 92 31 11 21 21 38 22 38 1 0 16 -27 34 -61z"/>
<path d="M567 1162 c-15 -16 -17 -51 -17 -279 0 -239 1 -261 18 -276 16 -15
51 -17 279 -17 239 0 261 1 276 18 15 16 17 51 17 279 0 239 -1 261 -18 276
-16 15 -51 17 -279 17 -239 0 -261 -1 -276 -18z m463 -277 l0 -185 -185 0
-185 0 0 185 0 185 185 0 185 0 0 -185z"/>
<path d="M3010 1671 c-35 -5 -40 -8 -23 -13 31 -9 43 -46 43 -139 l0 -79 -32
20 c-63 38 -162 15 -207 -48 -65 -91 -48 -276 31 -335 53 -39 167 -28 185 19
8 23 23 16 23 -11 0 -24 3 -25 60 -25 58 0 80 12 40 23 -11 3 -24 17 -30 32
-6 15 -10 138 -10 296 0 250 -1 269 -17 267 -10 0 -38 -4 -63 -7z m3 -242 c14
-18 17 -42 17 -140 0 -133 -12 -177 -55 -205 -34 -22 -90 -10 -117 26 -54 74
-43 278 18 331 38 33 104 27 137 -12z"/>
<path d="M4165 1650 c-40 -45 20 -105 65 -65 25 23 25 47 2 68 -24 22 -45 21
-67 -3z"/>
<path d="M1810 1611 c45 -12 50 -40 49 -266 -1 -115 -4 -221 -8 -235 -4 -14
-16 -26 -26 -28 -11 -2 -24 -8 -30 -13 -5 -5 33 -9 95 -9 62 0 100 4 95 9 -6
5 -19 11 -30 13 -25 4 -37 59 -33 163 l3 80 47 3 c83 5 103 -18 133 -152 19
-90 46 -126 93 -126 16 0 41 10 56 21 31 24 29 37 -3 17 -35 -21 -52 0 -78 97
-26 100 -34 112 -81 132 l-34 14 50 25 c85 42 114 134 66 203 -34 48 -86 61
-244 60 -80 -1 -134 -4 -120 -8z m250 -16 c54 -28 75 -108 49 -183 -16 -45
-53 -65 -124 -66 l-60 -1 0 116 c0 84 4 121 14 132 17 22 82 22 121 2z"/>
<path d="M4423 1593 c-21 -4 -23 -10 -23 -64 l0 -59 -37 -1 -38 -2 35 -6 35
-6 5 -170 c5 -181 11 -203 57 -224 58 -26 115 -4 139 55 17 40 17 44 4 44 -5
0 -10 -6 -10 -14 0 -28 -41 -66 -70 -66 -46 0 -51 22 -48 207 l3 168 60 6 60
6 -62 1 -63 2 0 65 c0 68 0 67 -47 58z"/>
<path d="M2414 1466 c-96 -42 -133 -218 -71 -331 50 -91 188 -113 266 -42 82
76 82 268 0 344 -48 43 -132 56 -195 29z m122 -15 c44 -27 59 -76 58 -191 0
-113 -19 -163 -69 -187 -28 -13 -36 -13 -60 -2 -54 27 -69 60 -73 167 -5 118
8 172 49 206 36 31 54 32 95 7z"/>
<path d="M3314 1466 c-96 -42 -133 -218 -71 -331 50 -91 188 -113 266 -42 82
76 82 268 0 344 -48 43 -132 56 -195 29z m122 -15 c44 -27 59 -76 58 -191 0
-113 -19 -163 -69 -187 -28 -13 -36 -13 -60 -2 -54 27 -69 60 -73 167 -5 118
8 172 49 206 36 31 54 32 95 7z"/>
<path d="M3695 1469 c-45 -4 -54 -8 -38 -13 33 -12 43 -57 43 -197 0 -140 -9
-179 -40 -179 -11 0 -20 -4 -20 -9 0 -5 41 -10 90 -10 50 0 90 2 90 5 0 2 -11
9 -24 14 -32 12 -39 51 -34 183 5 115 20 157 68 182 37 19 60 19 88 -1 21 -15
22 -21 22 -185 l0 -169 -25 -10 c-14 -5 -25 -12 -25 -14 0 -3 41 -5 90 -5 50
0 90 5 90 10 0 5 -9 9 -19 9 -11 0 -23 6 -28 13 -4 6 -10 86 -13 175 l-5 164
-28 24 c-53 45 -154 25 -192 -39 l-20 -32 -5 45 -5 45 -60 -6z"/>
<path d="M4170 1470 c-61 -5 -63 -6 -38 -17 15 -7 30 -23 33 -35 3 -13 4 -90
3 -173 -3 -144 -4 -150 -26 -161 -41 -20 -35 -22 63 -22 98 0 104 2 63 22 -22
11 -23 16 -28 201 l-5 190 -65 -5z"/>
<path d="M1934 700 c-95 -54 -142 -164 -131 -301 6 -77 23 -121 62 -167 46
-54 99 -76 186 -77 66 0 81 3 118 28 44 29 61 28 61 -4 0 -10 5 -19 10 -19 6
0 10 43 10 108 0 103 1 110 23 120 17 8 1 11 -78 11 -92 -1 -97 -2 -65 -13 39
-14 47 -34 49 -111 1 -31 -5 -59 -14 -72 -23 -33 -86 -47 -147 -33 -97 24
-138 102 -138 265 0 123 20 188 75 242 39 40 46 43 96 43 94 0 159 -53 174
-140 12 -70 25 -43 25 51 0 57 -4 88 -10 84 -5 -3 -10 -13 -10 -21 0 -20 -12
-18 -66 11 -70 37 -161 35 -230 -5z"/>
<path d="M2400 570 c-61 -5 -63 -6 -38 -17 15 -7 30 -23 33 -35 3 -13 4 -90 3
-173 -3 -144 -4 -150 -26 -161 -40 -20 -34 -22 72 -22 60 -1 106 3 106 9 0 5
-11 9 -24 9 -48 0 -56 21 -56 148 0 93 4 126 19 158 21 46 54 74 88 74 23 0
23 -1 8 -24 -32 -48 20 -90 58 -48 22 24 21 34 -4 66 -35 44 -110 26 -146 -35
l-18 -31 -5 44 -5 43 -65 -5z"/>
<path d="M2785 557 c-59 -33 -86 -93 -86 -192 0 -103 27 -160 91 -192 110 -56
238 5 256 123 11 77 -1 170 -27 209 -49 72 -156 96 -234 52z m142 -9 c48 -40
68 -191 39 -291 -27 -91 -94 -120 -153 -65 -28 26 -43 89 -43 179 0 92 16 144
54 175 31 27 73 28 103 2z"/>
<path d="M3170 570 c-61 -5 -63 -6 -38 -17 35 -15 37 -27 40 -205 3 -135 5
-149 24 -169 48 -47 155 -29 192 33 l17 30 5 -44 5 -43 65 5 65 5 -30 15 -30
15 -5 190 -5 190 -65 -5 c-59 -5 -63 -7 -39 -17 36 -16 39 -28 39 -156 0 -136
-18 -187 -75 -214 -33 -16 -39 -16 -63 -2 l-27 15 -5 189 -5 190 -65 -5z"/>
<path d="M3630 570 c-61 -5 -63 -6 -37 -17 15 -7 32 -24 37 -39 11 -27 14
-414 4 -451 -3 -12 -18 -26 -33 -32 -20 -7 0 -9 79 -9 93 0 101 1 72 11 -44
16 -52 31 -52 99 l0 58 33 -20 c106 -65 229 27 244 183 11 123 -41 214 -128
224 -51 6 -101 -14 -122 -47 -17 -28 -25 -25 -29 13 l-3 32 -65 -5z m227 -25
c30 -21 46 -78 47 -165 1 -93 -19 -164 -52 -190 -33 -26 -92 -26 -126 1 -25
20 -26 23 -26 140 0 133 11 172 55 207 32 26 72 28 102 7z"/>
</g>
</svg>
